Coordinates
nRows=222
nColumns=2
inDegrees=yes
endheader
time	ankle_angle_r	
2.66129	 -0.402026	
2.69456	 -0.393983	
2.72782	 -0.350952	
2.76109	 -0.411987	
2.79435	 -0.381470	
2.82762	 -0.387332	
2.86089	 -0.411987	
2.89415	 -0.403379	
2.92742	 -0.420402	
2.96069	 -0.457764	
2.99395	 -0.393113	
3.02722	 -0.408275	
3.06048	 -0.400537	
3.09375	 -0.377928	
3.12702	 -0.400731	
3.16028	 -0.468924	
3.19355	 -0.381470	
3.22681	 -0.418662	
3.26008	 -0.418468	
3.29335	 -0.438019	
3.32661	 -0.433340	
3.35988	 -0.447184	
3.39315	 -0.391021	
3.42641	 -0.421732	
3.45968	 -0.452795	
3.49294	 -0.386597	
3.52621	 -0.442505	
3.55948	 -0.407247	
3.59274	 -0.386017	
3.62601	 -0.431600	
3.65927	 -0.411987	
3.69254	 -0.406341	
3.72581	 -0.431020	
3.75907	 -0.421407	
3.79234	 -0.411987	
3.8256	 -0.442505	
3.85887	 -0.427246	
3.89214	 -0.405761	
3.9254	 -0.436182	
3.95867	 -0.433665	
3.99194	 -0.411987	
4.0252	 -0.403341	
4.05847	 -0.442505	
4.09173	 -0.396729	
4.125	 -0.442505	
4.15827	 -0.420247	
4.19153	 -0.397795	
4.2248	 -0.443378	
4.25806	 -0.441825	
4.29133	 -0.411987	
4.3246	 -0.435022	
4.35786	 -0.419666	
4.39113	 -0.411987	
4.4244	 -0.435019	
4.45766	 -0.427246	
4.49093	 -0.388762	
4.52419	 -0.435309	
4.55746	 -0.442505	
4.59073	 -0.406239	
4.62399	 -0.427246	
4.65726	 -0.450955	
4.69052	 -0.411987	
4.72379	 -0.442505	
4.75706	 -0.449024	
4.79032	 -0.396729	
4.82359	 -0.442505	
4.85685	 -0.451535	
4.89012	 -0.405855	
4.92339	 -0.473022	
4.95665	 -0.506921	
4.98992	 -0.467180	
5.02319	 -0.457764	
5.05645	 -0.503540	
5.08972	 -0.463316	
5.12298	 -0.488281	
5.15625	 -0.524158	
5.18952	 -0.457764	
5.22278	 -0.488281	
5.25605	 -0.498419	
5.28931	 -0.457764	
5.32258	 -0.473022	
5.35585	 -0.457764	
5.38911	 -0.396729	
5.42238	 -0.453178	
5.45565	 -0.436223	
5.48891	 -0.381470	
5.52218	 -0.446800	
5.55544	 -0.438306	
5.58871	 -0.434301	
5.62198	 -0.427246	
5.65524	 -0.442505	
5.68851	 -0.411987	
5.72177	 -0.427246	
5.75504	 -0.465786	
5.78831	 -0.423724	
5.82157	 -0.423821	
5.85484	 -0.435848	
5.8881	 -0.396729	
5.92137	 -0.454629	
5.95464	 -0.421170	
5.9879	 -0.393787	
6.02117	 -0.473022	
6.05444	 -0.427246	
6.0877	 -0.434550	
6.12097	 -0.455209	
6.15423	 -0.414445	
6.1875	 -0.411987	
6.22077	 -0.427246	
6.25403	 -0.409819	
6.2873	 -0.442505	
6.32056	 -0.440530	
6.35383	 -0.411987	
6.3871	 -0.396729	
6.42036	 -0.456079	
6.45363	 -0.442505	
6.4869	 -0.410496	
6.52016	 -0.442505	
6.55343	 -0.409391	
6.58669	 -0.381470	
6.61996	 -0.442505	
6.65323	 -0.411987	
6.68649	 -0.425424	
6.71976	 -0.442505	
6.75302	 -0.397446	
6.78629	 -0.412608	
6.81956	 -0.413036	
6.85282	 -0.411560	
6.88609	 -0.397060	
6.91935	 -0.427715	
6.95262	 -0.366349	
6.98589	 -0.396770	
7.01915	 -0.457764	
7.05242	 -0.396576	
7.08569	 -0.396230	
7.11895	 -0.457072	
7.15222	 -0.382355	
7.18548	 -0.367289	
7.21875	 -0.426610	
7.25202	 -0.380005	
7.28528	 -0.352610	
7.31855	 -0.381470	
7.35181	 -0.367233	
7.38508	 -0.410868	
7.41835	 -0.395513	
7.45161	 -0.380157	
7.48488	 -0.382879	
7.51815	 -0.382976	
7.55141	 -0.381470	
7.58468	 -0.393330	
7.61794	 -0.398525	
7.65121	 -0.381470	
7.68448	 -0.379480	
7.71774	 -0.414073	
7.75101	 -0.353135	
7.78427	 -0.355511	
7.81754	 -0.411987	
7.85081	 -0.366211	
7.88407	 -0.371350	
7.91734	 -0.396729	
7.9506	 -0.366211	
7.98387	 -0.369071	
8.01714	 -0.399685	
8.0504	 -0.366211	
8.08367	 -0.363061	
8.11694	 -0.396729	
8.1502	 -0.393386	
8.18347	 -0.369651	
8.21673	 -0.408451	
8.25	 -0.381470	
8.28327	 -0.354682	
8.31653	 -0.411987	
8.3498	 -0.388882	
8.38306	 -0.358992	
8.41633	 -0.411987	
8.4496	 -0.385683	
8.48286	 -0.361901	
8.51613	 -0.401135	
8.5494	 -0.392225	
8.58266	 -0.381470	
8.61593	 -0.411987	
8.64919	 -0.396729	
8.68246	 -0.371690	
8.71573	 -0.432233	
8.74899	 -0.386553	
8.78226	 -0.391548	
8.81552	 -0.386746	
8.84879	 -0.386843	
8.88206	 -0.427246	
8.91532	 -0.427246	
8.94859	 -0.436841	
8.98185	 -0.425224	
9.01512	 -0.421389	
9.04839	 -0.411987	
9.08165	 -0.427246	
9.11492	 -0.442505	
9.14819	 -0.405744	
9.18145	 -0.457764	
9.21472	 -0.429631	
9.24798	 -0.427246	
9.28125	 -0.411987	
9.31452	 -0.466295	
9.34778	 -0.396729	
9.38105	 -0.443923	
9.41431	 -0.404970	
9.44758	 -0.396729	
9.48085	 -0.412825	
9.51411	 -0.411987	
9.54738	 -0.396729	
9.58065	 -0.404487	
9.61391	 -0.442505	
9.64718	 -0.381470	
9.68044	 -0.426924	
9.71371	 -0.396729	
9.74698	 -0.396019	
9.78024	 -0.420068	
9.81351	 -0.411987	
9.84677	 -0.373196	
9.88004	 -0.425764	
9.91331	 -0.349276	
9.94657	 -0.357647	
9.97984	 -0.405389	
10.0131	 -0.337949	
